<svg width="38" height="38" viewBox="0 0 38 38" fill="none" xmlns="http://www.w3.org/2000/svg">
<path d="M19 37C28.9411 37 37 28.9411 37 19C37 9.05887 28.9411 1 19 1C9.05888 1 1 9.05887 1 19C1 28.9411 9.05888 37 19 37Z" stroke="#000033" stroke-width="1.5" stroke-miterlimit="10"/>
<path d="M20.9797 21.0461C21.1172 20.9908 21.2455 20.9263 21.3738 20.8525C23.7842 19.4977 24.0592 16.106 24.3433 13.7465C24.5083 12.4101 24.5541 10.9631 23.9125 9.73732C23.326 8.6129 22.2445 7.82949 21.0622 7.43318C20.4115 7.21198 19.7058 7.09216 18.9909 7.09216C18.2761 7.09216 17.5704 7.21198 16.9197 7.43318C15.7374 7.82949 14.6559 8.6129 14.0694 9.73732C13.4278 10.9631 13.4736 12.4101 13.6386 13.7465C13.9227 16.0691 14.1977 19.4055 16.5164 20.7972C16.6722 20.8894 16.8372 20.9723 17.0113 21.0461" stroke="#000033" stroke-width="1.5" stroke-miterlimit="10" stroke-linecap="round"/>
<path d="M15.8307 20.4286V22.6406L10.8174 24.5668C8.77366 25.3502 7.32559 27.1936 7.04148 29.3687L6.7207 31.8203" stroke="#000033" stroke-width="1.5" stroke-miterlimit="10" stroke-linecap="round"/>
<path d="M22.1719 20.4286V22.6406L27.1851 24.5668C29.2289 25.3502 30.677 27.1936 30.9611 29.3687L31.2819 31.8203" stroke="#000033" stroke-width="1.5" stroke-miterlimit="10" stroke-linecap="round"/>
<path d="M15.5715 21.9862C13.2895 22.9632 13.7294 25.3503 13.7294 25.3503" stroke="#5A5AE2" stroke-width="1.5" stroke-miterlimit="10" stroke-linecap="round"/>
<path d="M15.3235 30.9263H16.5149V29.3318C16.5149 27.5807 15.3235 25.3411 13.7379 25.3411C12.1524 25.3411 10.9609 27.5715 10.9609 29.3318V30.9263H12.1524" stroke="#5A5AE2" stroke-width="1.5" stroke-miterlimit="10" stroke-linecap="round"/>
<path d="M22.4902 21.9216C24.7448 22.6129 24.3507 26.152 24.3507 26.152V26.9539" stroke="#5A5AE2" stroke-width="1.5" stroke-miterlimit="10" stroke-linecap="round"/>
<path d="M24.3507 30.9263C25.4441 30.9263 26.3304 30.035 26.3304 28.9355C26.3304 27.836 25.4441 26.9447 24.3507 26.9447C23.2574 26.9447 22.3711 27.836 22.3711 28.9355C22.3711 30.035 23.2574 30.9263 24.3507 30.9263Z" stroke="#5A5AE2" stroke-width="1.5" stroke-miterlimit="10" stroke-linecap="round"/>
<path d="M15.8281 21.0737V22.6405C15.8281 25.0369 18.9992 27.0276 18.9992 27.0276C18.9992 27.0276 22.1703 25.0369 22.1703 22.6405V21.0737" stroke="#000033" stroke-width="1.5" stroke-miterlimit="10" stroke-linecap="round"/>
</svg>
